<?xml version="1.0" standalone="no"?><!DOCTYPE svg PUBLIC "-//W3C//DTD SVG 1.1//EN" "http://www.w3.org/Graphics/SVG/1.1/DTD/svg11.dtd"><svg t="1712646517593" class="icon" viewBox="0 0 1024 1024" version="1.1" xmlns="http://www.w3.org/2000/svg" p-id="1625" xmlns:xlink="http://www.w3.org/1999/xlink" width="200" height="200"><path d="M527.01 1024C350.83 1023.16 195.91 887.24 192.05 710.92c-1.64-75.16 23.62-143.74 65.48-199.08-0.54 0-1.04 0.16-1.58 0.16A256 256 0 0 1 256.05 0c172.4 0 369.08 225.78 274.66 509.72l-69.14 207.7a16 16 0 0 0 10.14 20.24l30.34 10.1a16 16 0 0 0 19.14-7.66l-62.44 187.4c-15.6 47 18.86 95.96 68.26 96.5z" opacity=".4" p-id="1626"></path><path d="M959.73 896h-61.84c36.38-36.8 61.86-84.24 61.86-128 0-53.1-44.16-105.62-95.7-122.18V448h95.7a64.4 64.4 0 0 0 62.86-77.74C1001.73 272.84 933.49 192 831.79 192V128c-96 0-148.44 125.46-178.8 216.58l-194.2 582.94c-15.7 47.16 19.08 96.34 68.8 96.48h464.16a32 32 0 0 0 32-32v-32a64 64 0 0 0-64.02-64z m-128-576a32 32 0 1 1 32 32 32 32 0 0 1-31.94-32z" p-id="1627"></path></svg>